# xmcd
#
# Track frame offsets:
#	150
#	15365
#	35730
#	51217
#	79375
#
# Disc length: 1935 seconds
#
# Revision: 1
# Processed by: cddbd v1.5.1PL0 Copyright (c) Steve Scherf et al.
# Submitted via: audiograbber 1.83.01
#
DISCID=37078d05
DTITLE=Mariha - Absolutely Antertaining
DYEAR=2005
DGENRE=
TTITLE0=Absolutely Entertaining (Radio Edit)
TTITLE1=Absolutely Entertaining (Film Version)
TTITLE2=Absolutely Entertaining (Instrumental)
TTITLE3=Don't Get Lost
TTITLE4=Daten-CD
EXTD=
EXTT0=
EXTT1=
EXTT2=
EXTT3=
EXTT4=
PLAYORDER=
